<svg xmlns="http://www.w3.org/2000/svg" width="247" height="247" viewBox="0 0 247 247" fill="none">
  <path d="M145.6 187.998C141.042 203.694 132.761 216.017 128.361 221.823C127.291 223.235 125.049 222.585 124.903 220.819C124.298 213.559 123.908 198.717 128.467 183.021C133.026 167.325 141.306 155.002 145.707 149.196C146.777 147.784 149.018 148.435 149.165 150.2C149.77 157.461 150.159 172.302 145.6 187.998Z" fill="#648940"/>
  <path d="M149.166 150.2C149.018 148.434 146.778 147.783 145.708 149.196C145.375 149.635 145.014 150.123 144.639 150.635C144.901 158.654 144.42 170.635 140.777 183.174C136.563 197.683 129.175 209.298 124.605 215.56C124.671 217.579 124.782 219.358 124.904 220.819C125.051 222.585 127.292 223.236 128.362 221.823C132.762 216.017 141.043 203.694 145.601 187.998C150.16 172.302 149.771 157.461 149.166 150.2Z" fill="#5A7A39"/>
  <path d="M123.42 230.053C122.14 230.053 120.913 229.545 120.009 228.641C119.104 227.736 118.596 226.509 118.596 225.229V132.927C118.596 131.648 119.104 130.421 120.009 129.516C120.913 128.612 122.14 128.103 123.42 128.103C124.699 128.103 125.926 128.612 126.831 129.516C127.736 130.421 128.244 131.648 128.244 132.927V225.229C128.244 226.509 127.736 227.736 126.831 228.641C125.926 229.545 124.699 230.053 123.42 230.053Z" fill="#76A34F"/>
  <path d="M101.398 187.998C105.957 203.694 114.238 216.017 118.638 221.823C119.708 223.235 121.95 222.585 122.096 220.819C122.701 213.559 123.091 198.717 118.532 183.021C113.973 167.325 105.693 155.002 101.292 149.196C100.222 147.784 97.981 148.435 97.8343 150.2C97.2293 157.461 96.8395 172.302 101.398 187.998Z" fill="#648940"/>
  <path d="M118.533 183.021C113.974 167.325 105.693 155.002 101.293 149.196C100.806 148.555 100.083 148.356 99.4199 148.478C103.949 155.101 110.035 165.551 113.708 178.198C118.267 193.894 117.877 208.736 117.272 215.996C117.192 216.96 116.484 217.573 115.687 217.719C116.637 219.111 117.622 220.48 118.639 221.824C119.709 223.236 121.95 222.586 122.097 220.82C122.702 213.56 123.091 198.718 118.533 183.021Z" fill="#5A7A39"/>
  <path d="M158.818 94.9464C158.818 128.079 134.245 139.395 123.5 139.395C112.754 139.395 88.1816 128.079 88.1816 94.9464C88.1816 67.8199 111.855 34.4797 120.438 23.2836C120.798 22.8131 121.261 22.4319 121.792 22.1694C122.323 21.907 122.907 21.7705 123.499 21.7705C124.091 21.7705 124.676 21.907 125.207 22.1694C125.737 22.4319 126.201 22.8131 126.56 23.2836C135.144 34.4807 158.818 67.8199 158.818 94.9464Z" fill="#B7022D"/>
  <path d="M145.506 84.8214C156.144 116.2 136.505 134.806 126.328 138.256C116.152 141.707 89.2476 138.88 78.6092 107.501C69.8995 81.8111 81.6156 42.6355 86.1494 29.2754C86.3391 28.7143 86.6555 28.2045 87.0741 27.7856C87.4927 27.3666 88.0022 27.0498 88.5631 26.8597C89.124 26.6696 89.7212 26.6113 90.3082 26.6894C90.8953 26.7675 91.4565 26.9798 91.9482 27.31C103.671 35.158 136.796 59.1315 145.506 84.8214Z" fill="#D10028"/>
  <path d="M89.7677 119.409C89.1213 119.409 88.5134 119.081 88.1564 118.541C87.8766 118.107 87.7705 117.595 87.8766 117.093C87.9828 116.582 88.2722 116.148 88.7064 115.868C89.5651 115.299 90.8098 115.559 91.379 116.408C91.9676 117.306 91.7167 118.502 90.8291 119.091C90.5203 119.293 90.144 119.409 89.7677 119.409ZM86.0724 112.636C85.3102 112.636 84.6251 112.192 84.3164 111.497C83.5734 109.847 82.8884 108.091 82.2613 106.258C80.3123 100.508 79.3281 93.5609 79.3281 85.6202C79.3378 65.6962 85.3873 44.0741 88.9959 32.9494C89.1792 32.3705 89.6327 31.917 90.2116 31.7241C90.7808 31.5311 91.4273 31.6179 91.9193 31.9556C97.226 35.6124 105.273 41.4979 113.532 48.8404C113.551 48.8597 113.57 48.8693 113.59 48.8886C114.159 49.4 114.68 49.8728 115.182 50.3263C115.973 51.0402 116.031 52.2656 115.307 53.0471C114.622 53.8093 113.349 53.8672 112.586 53.1822C112.114 52.748 111.602 52.2849 111.023 51.7735C103.729 45.2898 96.5988 39.9638 91.8711 36.6255C88.6099 47.0747 83.1779 67.2786 83.1875 85.6202C83.1779 93.146 84.1041 99.6684 85.918 105.023C86.4969 106.731 87.1434 108.381 87.838 109.925C88.2722 110.889 87.8284 112.038 86.8636 112.472C86.6127 112.588 86.3522 112.636 86.0724 112.636Z" fill="#E63950"/>
  <path d="M101.494 84.8214C90.8555 116.2 110.495 134.806 120.671 138.256C130.847 141.707 157.752 138.88 168.39 107.501C177.1 81.8111 165.384 42.6355 160.85 29.2754C160.66 28.7143 160.344 28.2045 159.925 27.7856C159.507 27.3666 158.997 27.0498 158.436 26.8597C157.876 26.6696 157.278 26.6113 156.691 26.6894C156.104 26.7675 155.543 26.9798 155.051 27.31C143.329 35.158 110.204 59.1315 101.494 84.8214Z" fill="#E63950"/>
  <path d="M160.85 29.2754C160.66 28.7143 160.344 28.2046 159.926 27.7856C159.507 27.3667 158.998 27.0498 158.437 26.8597C157.876 26.6696 157.279 26.6113 156.692 26.6894C156.105 26.7675 155.544 26.9799 155.052 27.31C154.684 27.557 154.294 27.8194 153.885 28.0973C159.024 45.4568 166.026 76.3665 158.742 97.8526C148.103 129.231 121.199 132.058 111.023 128.608C109.413 128.062 107.566 127.135 105.641 125.84C110.331 132.585 116.351 136.792 120.671 138.256C130.847 141.707 157.752 138.88 168.39 107.501C177.1 81.8111 165.384 42.6356 160.85 29.2754Z" fill="#D10028"/>
  <path d="M160.85 29.2753C160.568 28.4414 160.009 27.7291 159.266 27.2569C158.523 26.7847 157.641 26.5811 156.766 26.6799C161.693 41.743 171.836 78.2816 163.566 102.677C152.927 134.055 126.023 136.882 115.846 133.432C113.497 132.636 110.644 131.022 107.775 128.64C112.057 133.756 116.983 137.007 120.671 138.256C130.847 141.707 157.751 138.88 168.39 107.501C177.099 81.811 165.383 42.6355 160.85 29.2753Z" fill="#B7022D"/>
</svg>